<svg xmlns="http://www.w3.org/2000/svg" xmlns:xlink="http://www.w3.org/1999/xlink" width="1920" height="1020"
  viewBox="0 0 1920 1020" fill="none">
  <g opacity=".5" transform="translate(0 0)">
    <!-- <mask id="bg-mask-0" fill="white">
      <use transform="translate(0 0)" xlink:href="#path_0"></use>
    </mask> -->
    <g mask="url(#bg-mask-0)">
      <path id="矩形 1" fill-rule="evenodd" fill="url(#linear_0)" opacity="1" d="M0 1020L1920 1020L1920 0L0 0L0 1020Z">
      </path>
      <g opacity="1" transform="translate(-150.000244140625 158.68212890625)">
        <path id="path1147_3_" fill-rule="evenodd" style="fill:#BFBCF7" opacity="1"
          d="M837.126 463.456C921.746 483.682 942.21 597 871.084 643.558C834.578 679.74 779.191 665.981 732.107 670.897C671.534 670.627 617.856 712.51 601.695 763.041C576.794 830.214 616.443 904.291 574.423 965.051C517.523 1060.6 361.281 1072.76 287.468 990.24C209.148 915.524 235.198 778.743 339.663 737.552C418.12 697.829 509.012 753.775 587.543 718.433C665.745 694.179 678.586 614.837 679.808 549.609C681.306 485.407 767.35 437.052 837.126 463.456Z">
        </path>
        <path id="path1147_2_" fill-rule="evenodd" style="fill:#FAFAFF" opacity="1"
          d="M557.982 324.85C533.379 241.241 621.309 167.08 696.713 206.276C746.418 219.358 762.57 275.531 788.965 312.459C819.485 364.782 882.553 390.784 934.419 379.086C1005.11 367.845 1049.51 295.447 1122.55 301.178C1234.18 303.166 1322.7 432.35 1287.84 536.289C1262.03 641.107 1130.33 687.396 1042.3 617.483C969.075 570.002 971.411 463.775 901.469 412.115C841.514 356.679 766.74 385.515 709.01 416.384C655.185 449.507 571.075 398.343 557.982 324.85Z">
        </path>
        <path id="path1147_1_" fill-rule="evenodd" style="fill:#BFBCF7" opacity="1"
          d="M579.91 632.476C519.617 694.832 411.499 656.701 407.496 571.973C394.021 521.683 434.833 481.047 453.194 438.727C483.247 386.674 474.884 318.514 438.152 279.956C392.639 225.05 308.039 221.319 275.996 155.104C222.288 57.2935 288.988 -83.7802 397.377 -106.223C501.237 -137.352 606.885 -46.8589 590.73 65.271C586.522 152.199 492.542 203.781 482.652 290.032C464.405 369.722 526.338 420.228 582.845 454.588C638.527 485.868 636.318 584.361 579.91 632.476Z">
        </path>
      </g>
      <path id="path1147_1_" fill-rule="evenodd" style="fill:#8160BD" opacity="1"
        d="M1699.99 339.33C1681.36 339.644 1670.73 317.424 1682.99 303.943C1688.59 294.256 1700.96 294.282 1710.18 290.642C1722.65 287.3 1731.74 275.674 1732.02 264.235C1733.44 248.979 1721.16 235.559 1726.35 220.63C1733.05 197.61 1764.62 186.311 1784.49 199.369C1805 210.419 1807.3 240.218 1787.81 254.799C1773.97 267.367 1751.85 260.925 1737.25 272.527C1722.37 281.862 1724.1 298.945 1727.47 312.75C1731.17 325.962 1715.88 340.59 1699.99 339.33Z">
      </path>
    </g>
  </g>
  <defs>
    <rect id="path_0" x="0" y="0" width="1920" height="1020" rx="0" ry="0" />
    <radialGradient id="linear_0" cx="30.072%" cy="48.081%" fx="30.072%" fy="48.081%" r="0.7076899999999999"
      gradientTransform="translate(0.30072 0.48081) scale(0.53125 1) rotate(90) scale(1 1.8823529411764706) translate(-0.30072 -0.48081)">
      <stop offset="0" stop-color="#D9E1FC" stop-opacity="1" />
      <stop offset="1" stop-color="#C1C5F7" stop-opacity="1" />
    </radialGradient>
  </defs>
</svg>