<svg xmlns="http://www.w3.org/2000/svg" xmlns:xlink="http://www.w3.org/1999/xlink" width="180" height="180" viewBox="0 0 180 180" fill="none"><g opacity="1"  transform="translate(0 0)"><path id="路径 14" fill-rule="evenodd" style="fill:#6738BD" opacity="1" d="M0 161.013L0 18.9873C0 8.5443 8.5443 0 18.9873 0L161.013 0C171.456 0 180 8.5443 180 18.9873L180 161.013C180 171.456 171.456 180 161.013 180L18.9873 180C8.5443 180 0 171.456 0 161.013Z"></path><g opacity="1"  transform="translate(33.0377197265625 22.21502685546875)"><path id="路径 16" fill-rule="evenodd" style="fill:#FFFFFF" opacity="1" d="M19.3672 15.3797L66.4558 80.1266L66.4558 0L19.3672 15.3797Z"></path><path id="路径 17" fill-rule="evenodd" style="fill:#FFFFFF" opacity="1" d="M81.4554 64.7467L70.2529 60.9492L70.2529 80.1264L81.4554 64.7467Z"></path><path id="路径 18" fill-rule="evenodd" style="fill:#FFFFFF" opacity="1" d="M73.2913 82.4051L97.5951 74.4304L88.2913 61.7089L73.2913 82.4051Z"></path><path id="路径 20" fill-rule="evenodd" style="fill:#FFFFFF" opacity="1" d="M0 61.7088L63.4177 82.405L24.1139 28.481L0 61.7088Z"></path><path id="路径 22" fill-rule="evenodd" style="fill:#FFFFFF" opacity="1" d="M106.139 100.253L73.2913 89.6202L93.6078 117.342L106.139 100.253Z"></path><path id="路径 23" fill-rule="evenodd" style="fill:#FFFFFF" opacity="1" d="M93.4174 123.797L70.2529 91.7087L70.2529 131.202L93.4174 123.797Z"></path><path id="路径 24" fill-rule="evenodd" style="fill:#FFFFFF" opacity="1" d="M74.4303 86.0125L103.101 95.1265L103.101 76.7087L74.4303 86.0125Z"></path><path id="路径 25" fill-rule="evenodd" style="fill:#FFFFFF" opacity="1" d="M63.4179 89.6202L11.5825 106.329L31.3293 133.671L63.4179 89.6202Z"></path><path id="路径 26" fill-rule="evenodd" style="fill:#FFFFFF" opacity="1" d="M38.3547 130.253L66.4559 139.367L66.4559 91.7087L38.3547 130.253Z"></path><path id="路径 27" fill-rule="evenodd" style="fill:#FFFFFF" opacity="1" d="M62.2787 86.0125L4.17743 67.0252L4.17743 104.81L62.2787 86.0125Z"></path></g></g></svg>