<svg xmlns="http://www.w3.org/2000/svg" xmlns:xlink="http://www.w3.org/1999/xlink" width="200.992919921875" height="200" viewBox="0 0 200.992919921875 200" fill="none"><g opacity="1"  transform="translate(0 0)"><path id="path1147_3_" fill-rule="evenodd" style="fill:#6738BD" opacity="1" d="M122.399 118.076C135.997 125.442 134.297 145.838 119.944 150.559C112.013 155.091 103.136 150.181 94.827 148.859C84.4401 146.026 73.2978 150.748 68.1988 158.68C60.8335 169.066 64.2329 183.608 54.2237 192.106C40.0598 205.893 12.6761 200.794 3.80003 183.23C-6.20915 166.8 4.55544 144.516 24.385 142.249C39.682 139.039 52.7129 152.825 67.8211 150.37C82.3627 149.803 88.2171 136.773 91.4276 125.63C94.6381 114.677 111.635 110.333 122.399 118.076Z"></path><path id="path1147_2_" fill-rule="evenodd" style="fill:#6738BD" opacity="1" d="M80.8519 81.4391C80.4742 65.9532 98.9817 57.266 110.124 67.464C118.056 71.9965 118.245 82.3834 121.077 89.9375C123.91 100.324 133.542 107.69 142.984 108.067C155.637 109.389 166.591 99.0024 178.866 103.346C197.94 108.823 207.194 135.073 196.43 151.315C187.176 168.122 162.436 170.011 150.538 153.958C140.152 142.438 145.439 124.309 135.808 112.222C128.065 99.9467 113.901 101.458 102.57 104.101C91.8053 107.312 79.7188 94.6588 80.8519 81.4391Z"></path><path id="path1147_1_" fill-rule="evenodd" style="fill:#6738BD" opacity="1" d="M70.4648 135.262C57.2451 143.194 40.4373 131.674 43.6478 116.943C43.6478 107.689 52.5238 102.59 57.6228 96.1695C65.177 88.6154 66.8766 76.5289 62.3442 68.2193C57.0563 56.6993 42.7035 52.1669 40.2484 39.3249C35.5271 20.062 53.4681 -1.0895 73.1088 0.0436175C92.3717 -0.52294 106.347 19.8731 98.415 38.3807C93.6937 53.1112 75.1861 57.6436 69.5206 71.9964C62.7219 84.8384 71.0314 96.3584 79.152 104.857C87.2727 112.789 82.3625 129.596 70.4648 135.262Z"></path></g></svg>