<svg xmlns="http://www.w3.org/2000/svg" xmlns:xlink="http://www.w3.org/1999/xlink" width="138" height="40.02767103989985" viewBox="0 0 138 40.02767103989985" fill="none"><g opacity="1"  transform="translate(0 0)"><g opacity="1"  transform="translate(46.381103515625 5.41363525390625)"><path id="路径 1" fill-rule="evenodd" style="fill:#6738BD" opacity="1" d="M18.6715 3.17493L18.6715 7.59713L11.7925 7.59713L11.7925 22.489L6.6522 22.489L6.6522 7.59713L0 7.59713L0 3.17493L18.6715 3.17493Z"></path><path id="路径 2" fill-rule="evenodd" style="fill:#6738BD" opacity="1" d="M25.5504 17.7644C25.5882 18.0668 25.6637 18.2936 25.7771 18.4448C25.8527 18.596 26.0039 18.7093 26.1551 18.7849C26.3063 18.8605 26.6087 18.9361 27.0622 18.9739C27.5158 19.0117 27.7804 19.0495 27.856 19.0495L28.0071 19.0495C28.6497 19.0495 29.1032 18.9739 29.4056 18.8605C29.708 18.7471 29.897 18.5582 29.9726 18.3692C30.086 18.1802 30.086 17.8778 30.0104 17.4999C29.9348 17.2731 29.8592 17.0841 29.7458 16.9707C29.6324 16.8573 29.4434 16.7817 29.141 16.7817C28.8387 16.7439 28.4985 16.7439 28.0449 16.7439L26.4953 16.7439L25.059 16.7439L23.5471 16.5927C22.9802 16.5549 22.5266 16.4793 22.1865 16.366C21.8463 16.2526 21.5061 15.988 21.2038 15.61C20.9014 15.2321 20.6746 14.8163 20.5612 14.4383C20.41 14.0604 20.3344 13.7202 20.3344 13.4178C20.2966 13.1154 20.2966 12.6997 20.3344 12.2083C20.3722 11.528 20.4478 10.9232 20.599 10.4697C20.7502 10.0161 21.0148 9.60036 21.3927 9.2224C21.7707 8.88223 22.2621 8.61765 22.829 8.46646C23.396 8.31528 24.3031 8.23969 25.5126 8.23969L29.9348 8.23969C30.6529 8.23969 31.2199 8.27748 31.6356 8.31528C32.0514 8.35308 32.4671 8.46646 32.8829 8.61765C33.2987 8.76884 33.6766 9.07121 34.0546 9.48697C34.4326 9.90274 34.6215 10.3563 34.6215 10.8477L34.7349 12.2461L29.6324 12.2461C29.5568 11.9438 29.4434 11.7548 29.33 11.6414C29.2166 11.528 29.1032 11.4524 28.9143 11.3768C28.7631 11.3012 28.3851 11.2634 27.8937 11.2634L27.289 11.2634C26.8354 11.2634 26.4575 11.3012 26.1551 11.4146C25.8905 11.4902 25.7015 11.6414 25.5882 11.7548C25.4748 11.906 25.437 12.0949 25.4748 12.3595C25.4748 12.5863 25.5504 12.8131 25.6637 12.9643C25.7771 13.1154 25.9661 13.2666 26.1551 13.3422C26.3819 13.4178 26.8354 13.4556 27.5536 13.4556L29.6324 13.4556C30.0482 13.4556 30.5395 13.4556 31.0687 13.4934C31.6356 13.5312 32.0892 13.569 32.5049 13.6068C32.9207 13.6446 33.2987 13.758 33.6388 13.947C34.0168 14.136 34.3192 14.4005 34.5837 14.7407C34.8483 15.0809 34.9995 15.3832 35.1129 15.6856C35.1885 15.988 35.2641 16.4038 35.2641 17.0085C35.2641 17.6132 35.2641 18.1046 35.2263 18.5204C35.1507 19.2763 34.9995 19.881 34.7349 20.3346C34.4704 20.7882 34.0546 21.1283 33.4499 21.4307C32.8451 21.6953 32.1648 21.9221 31.371 22.0354C30.5773 22.1488 29.8214 22.2244 29.0654 22.2244L26.1551 22.2244C25.4748 22.2244 24.681 22.1866 23.7739 22.111C22.8668 22.0354 22.1487 21.8465 21.6951 21.5063C21.2415 21.1661 20.9014 20.7504 20.6746 20.259C20.4856 19.7677 20.3722 19.3519 20.3722 19.0495L20.2966 17.8022L25.5504 17.7644Z"></path><path id="路径 3" fill-rule="evenodd" style="fill:#6738BD" opacity="1" d="M42.9747 7.40816L52.6884 7.40816L52.6884 3.28833L37.7209 3.28833L37.7209 31.4468L43.0125 26.1553L43.0125 15.5722L52.7262 15.5722L52.7262 11.4146L43.0125 11.4146L43.0125 7.40816L42.9747 7.40816Z"></path><path id="路径 4" fill-rule="evenodd" style="fill:#6738BD" opacity="1" d="M56.0901 13.0776L56.0901 22.5646L61.0036 22.5646L61.0036 8.16406L56.0901 13.0776Z"></path><path id="路径 5" fill-rule="evenodd" style="fill:#6738BD" opacity="1" d="M69.1677 18.1424L69.1677 0L64.2542 4.91356L64.2542 22.111L74.0435 22.111L74.0435 18.1424L69.1677 18.1424Z"></path><path id="路径 6" fill-rule="evenodd" style="fill:#6738BD" opacity="1" d="M86.8186 8.08852C87.6123 8.20191 88.3305 8.35309 88.8974 8.50428C89.4644 8.65547 89.9557 8.95784 90.3337 9.3358C90.7117 9.71377 91.014 10.1673 91.2408 10.6587C91.4676 11.15 91.581 11.5658 91.581 11.906L91.6188 13.6068L91.6188 16.2148L81.7161 16.2148L81.7161 17.3487C81.7161 17.7267 81.7917 18.029 81.9051 18.3314C82.0184 18.6338 82.2074 18.8605 82.4342 19.0117C82.661 19.1629 83.1523 19.2385 83.7949 19.2007C84.2484 19.2007 84.702 19.1629 85.08 19.1251C85.4579 19.0873 85.7603 18.9361 85.9493 18.7094C86.1383 18.4826 86.2517 18.2558 86.2517 18.029L86.2895 17.5377L91.581 17.5377C91.4298 18.3692 91.2786 19.0117 91.0896 19.4275C90.9006 19.8433 90.5983 20.2968 90.1069 20.7504C89.6534 21.2039 89.1242 21.5441 88.5195 21.7709C87.9147 21.9977 87.0454 22.1111 85.9115 22.1111L82.1318 22.1111C80.809 22.1111 79.864 22.0355 79.2971 21.8843C78.7301 21.7331 78.201 21.4307 77.7474 20.9772C77.2939 20.5236 76.9915 20.0322 76.8403 19.5031C76.6891 18.9739 76.6135 18.3692 76.6135 17.6889L76.6135 13.2667C76.6135 12.6241 76.6891 11.9816 76.8403 11.339C76.9915 10.6587 77.2939 10.0917 77.7474 9.56258C78.201 9.03343 78.7679 8.65547 79.5239 8.42869C80.2798 8.20191 81.1869 8.05072 82.3208 8.05072L86.8186 8.08852ZM86.5918 13.4556C86.6296 13.0021 86.6296 12.6241 86.554 12.3217C86.4784 12.0194 86.2895 11.7548 85.9871 11.528C85.6847 11.3012 85.3445 11.1878 84.9288 11.1122C84.513 11.0744 84.0973 11.0367 83.6059 11.0744C83.0767 11.1122 82.661 11.2634 82.3208 11.4902C81.9806 11.717 81.7917 11.9816 81.8295 12.2839L81.7539 13.4556L86.5918 13.4556Z"></path><path id="路径 7" fill-rule="evenodd" style="fill:#6738BD" opacity="1" d="M61.3437 5.29152C61.3437 5.82067 61.1926 6.34982 60.928 6.76558C60.4366 7.55931 59.5673 8.05067 58.5846 8.05067C57.6019 8.05067 56.7326 7.52152 56.2412 6.76558C55.9766 6.34982 55.8254 5.82067 55.8254 5.29152C55.8254 3.74186 57.0727 2.49457 58.6224 2.49457C60.0965 2.49457 61.3437 3.74186 61.3437 5.29152Z"></path></g><g opacity="1"  transform="translate(0 0)"><path id="path1147_3_" fill-rule="evenodd" style="fill:#6738BD" opacity="1" d="M24.4968 23.6316C27.2182 25.1057 26.878 29.1877 24.0055 30.1326C22.418 31.0398 20.6416 30.057 18.9785 29.7925C16.8997 29.2255 14.6697 30.1704 13.6492 31.7579C12.1751 33.8367 12.8555 36.747 10.8522 38.4479C8.01749 41.207 2.53697 40.1865 0.760532 36.6715C-1.24269 33.3831 0.911718 28.9231 4.88037 28.4696C7.9419 27.827 10.5499 30.5862 13.5736 30.0948C16.4839 29.9815 17.6556 27.3735 18.2982 25.1435C18.9407 22.9513 22.3424 22.082 24.4968 23.6316Z"></path><path id="path1147_2_" fill-rule="evenodd" style="fill:#6738BD" opacity="1" d="M16.1816 16.299C16.106 13.1997 19.81 11.4611 22.04 13.5021C23.6275 14.4092 23.6653 16.4881 24.2322 17.9999C24.7992 20.0787 26.7268 21.5528 28.6166 21.6284C31.149 21.893 33.3412 19.8142 35.798 20.6835C39.6155 21.7796 41.4675 27.0333 39.3131 30.2838C37.4611 33.6477 32.5097 34.0257 30.1285 30.813C28.0497 28.5074 29.108 24.8789 27.1804 22.4599C25.6307 20.0031 22.796 20.3055 20.5282 20.8347C18.3738 21.4772 15.9548 18.9448 16.1816 16.299Z"></path><path id="path1147_1_" fill-rule="evenodd" style="fill:#6738BD" opacity="1" d="M14.1028 27.0711C11.457 28.6586 8.09315 26.353 8.73569 23.4048C8.73569 21.5528 10.5121 20.5323 11.5326 19.2472C13.0445 17.7353 13.3847 15.3164 12.4776 13.6533C11.4193 11.3477 8.54671 10.4406 8.05535 7.87043C7.11044 4.01517 10.7011 -0.21805 14.632 0.00872954C18.4872 -0.10466 21.2842 3.97738 19.6967 7.68144C18.7518 10.6296 15.0477 11.5367 13.9138 14.4092C12.5532 16.9794 14.2162 19.285 15.8415 20.9858C17.4667 22.5733 16.484 25.9372 14.1028 27.0711Z"></path></g></g></svg>