<svg xmlns="http://www.w3.org/2000/svg" xmlns:xlink="http://www.w3.org/1999/xlink" width="137.80767822265625" height="38.65386962890625" viewBox="0 0 137.80767822265625 38.65386962890625" fill="none"><g opacity="1"  transform="translate(0 0)"><g opacity="1"  transform="translate(0 0)"><g opacity="1"  transform="translate(44.6153564453125 4.1153564453125)"><path id="路径 1" fill-rule="evenodd" style="fill:#6738BD" opacity="1" d="M2.03846 0.0384521L3.61538 0.0384521L5.69231 4.1923L4.26923 4.1923L3.88462 3.38461L1.76923 3.38461L1.34615 4.1923L0 4.1923L2.03846 0.0384521ZM2.11538 2.57691L3.53846 2.57691L2.84615 1.15384L2.11538 2.57691Z"></path><path id="路径 2" fill-rule="evenodd" style="fill:#6738BD" opacity="1" d="M10.5 0.0384521L13.7308 0.0384521C14.0385 0.0384521 14.2692 0.0769131 14.4231 0.153836C14.5769 0.23076 14.6923 0.346144 14.7692 0.423068C14.8462 0.538452 14.8846 0.653837 14.9231 0.769221C14.9615 0.884606 14.9615 1.03845 14.9615 1.23076C14.9615 1.42307 14.9615 1.61538 14.9615 1.84614C14.9615 2.15384 14.9231 2.38461 14.8462 2.53845C14.7692 2.6923 14.6923 2.80768 14.5769 2.88461C14.4615 2.96153 14.3462 3.03845 14.2308 3.03845C14.1154 3.03845 13.9231 3.07691 13.7308 3.07691L11.7308 3.07691L11.7308 4.15384L10.5 4.15384L10.5 0.0384521ZM11.7308 0.999991L11.7308 2.15384L13.2308 2.15384C13.4231 2.15384 13.5385 2.11538 13.6154 2.03845C13.6923 1.96153 13.7308 1.80768 13.7308 1.57691C13.7308 1.38461 13.6923 1.23076 13.6154 1.15384C13.5385 1.07691 13.4231 0.999991 13.2308 0.999991L11.7308 0.999991Z"></path><path id="路径 3" fill-rule="evenodd" style="fill:#6738BD" opacity="1" d="M21.8077 0.0384521L23.3846 0.0384521L25.4615 4.1923L24.0385 4.1923L23.6538 3.38461L21.5385 3.38461L21.1154 4.1923L19.7692 4.1923L21.8077 0.0384521ZM21.8846 2.57691L23.3077 2.57691L22.6154 1.15384L21.8846 2.57691Z"></path><path id="路径 4" fill-rule="evenodd" style="fill:#6738BD" opacity="1" d="M33.5769 1.5C33.5769 1.42308 33.5769 1.34615 33.5385 1.26923C33.5385 1.19231 33.5 1.15385 33.4231 1.07692C33.3846 1 33.2308 0.961538 33.0385 0.961538L32.2308 0.961538C32.0769 0.961538 31.9615 0.961538 31.8462 1C31.7692 1 31.6923 1.03846 31.6539 1.07692C31.6154 1.11538 31.5769 1.15385 31.5385 1.23077C31.5 1.30769 31.5 1.42308 31.5 1.57692L31.5 2.57692C31.5 2.76923 31.5 2.92308 31.5769 3C31.6154 3.07692 31.6539 3.11538 31.6923 3.15385C31.7308 3.19231 31.8077 3.23077 31.8462 3.23077C31.9231 3.23077 32.0385 3.26923 32.2308 3.26923L33.0385 3.26923C33.3077 3.26923 33.5 3.23077 33.5385 3.15385C33.5769 3.07692 33.6154 3.03846 33.6154 2.96154L33.6539 2.61538L34.9616 2.61538L34.9231 3.42308C34.9231 3.53846 34.8846 3.65385 34.8077 3.73077C34.7308 3.80769 34.6539 3.88462 34.5385 3.96154C34.4231 4.03846 34.2692 4.07692 34.1154 4.11538C33.9231 4.15385 33.7692 4.19231 33.6154 4.19231L31.6154 4.19231C31.5 4.19231 31.3077 4.19231 31.1154 4.15385C30.9231 4.11538 30.7692 4.07692 30.6154 3.96154C30.5 3.88462 30.3846 3.76923 30.3462 3.69231C30.2692 3.61538 30.2308 3.5 30.2308 3.38462C30.1923 3.26923 30.1923 3.19231 30.1923 3.07692L30.1923 1.07692C30.1923 1 30.1923 0.923077 30.2308 0.807692C30.2692 0.692308 30.3077 0.615385 30.3462 0.538462C30.4231 0.461538 30.5 0.384615 30.6154 0.26923C30.7308 0.192308 30.8846 0.115384 31.0385 0.0769219C31.1923 0.038461 31.3462 0 31.5 0L33.6539 0C33.8077 0 33.9231 0 34.0385 0.038461C34.1539 0.0769219 34.2692 0.115384 34.3846 0.153845C34.5 0.192308 34.6154 0.26923 34.6923 0.384615C34.7692 0.5 34.8462 0.653846 34.8462 0.884615L34.8846 1.46154L33.5769 1.5Z"></path><path id="路径 5" fill-rule="evenodd" style="fill:#6738BD" opacity="1" d="M39.8077 0.0384521L41.0385 0.0384521L41.0385 1.61538L43.3462 1.61538L43.3462 0.0384521L44.577 0.0384521L44.577 4.23076L43.3462 4.23076L43.3462 2.57691L41.0385 2.57691L41.0385 4.23076L39.8077 4.23076L39.8077 0.0384521Z"></path><path id="路径 6" fill-rule="evenodd" style="fill:#6738BD" opacity="1" d="M49.3846 0.0384521L53.577 0.0384521L53.577 0.923068L50.6539 0.923068L50.6539 1.73076L53.577 1.73076L53.577 2.49999L50.6539 2.49999L50.6539 3.30768L53.577 3.30768L53.577 4.15384L49.3846 4.15384L49.3846 0.0384521Z"></path></g><g opacity="1"  transform="translate(44.576904296875 6.65380859375)"><path id="路径 7" fill-rule="evenodd" style="fill:#6738BD" opacity="1" d="M19 3.2308L19 7.7308L12 7.7308L12 22.8847L6.76923 22.8847L6.76923 7.7308L0 7.7308L0 3.2308L19 3.2308Z"></path><path id="路径 8" fill-rule="evenodd" style="fill:#6738BD" opacity="1" d="M26 18.077C26.0384 18.3846 26.1153 18.6154 26.2307 18.7693C26.3077 18.9231 26.4615 19.0385 26.6153 19.1154C26.7692 19.1923 27.0769 19.2693 27.5384 19.3077C28 19.3462 28.2692 19.3846 28.3461 19.3846L28.5 19.3846C29.1538 19.3846 29.6153 19.3077 29.923 19.1923C30.2307 19.077 30.423 18.8846 30.5 18.6923C30.6153 18.5 30.6153 18.1923 30.5384 17.8077C30.4615 17.577 30.3846 17.3846 30.2692 17.2693C30.1538 17.1539 29.9615 17.077 29.6538 17.077C29.3461 17.0385 29 17.0385 28.5384 17.0385L26.9615 17.0385L25.5 17.0385L23.9615 16.8846C23.3846 16.8462 22.923 16.7693 22.5769 16.6539C22.2307 16.5385 21.8846 16.2693 21.5769 15.8846C21.2692 15.5 21.0384 15.077 20.923 14.6923C20.7692 14.3077 20.6923 13.9616 20.6923 13.6539C20.6538 13.3462 20.6538 12.9231 20.6923 12.4231C20.7307 11.7308 20.8077 11.1154 20.9615 10.6539C21.1154 10.1923 21.3846 9.76926 21.7692 9.38464C22.1538 9.03849 22.6538 8.76926 23.2307 8.61541C23.8077 8.46157 24.7307 8.38464 25.9615 8.38464L30.4615 8.38464C31.1923 8.38464 31.7692 8.4231 32.1923 8.46157C32.6153 8.50003 33.0384 8.61541 33.4615 8.76926C33.8846 8.9231 34.2692 9.2308 34.6538 9.65387C35.0384 10.0769 35.2307 10.5385 35.2307 11.0385L35.3461 12.4616L30.1538 12.4616C30.0769 12.1539 29.9615 11.9616 29.8461 11.8462C29.7307 11.7308 29.6153 11.6539 29.423 11.577C29.2692 11.5 28.8846 11.4616 28.3846 11.4616L27.7692 11.4616C27.3077 11.4616 26.923 11.5 26.6153 11.6154C26.3461 11.6923 26.1538 11.8462 26.0384 11.9616C25.923 12.1154 25.8846 12.3077 25.923 12.577C25.923 12.8077 26 13.0385 26.1153 13.1923C26.2307 13.3462 26.423 13.5 26.6153 13.577C26.8461 13.6539 27.3077 13.6923 28.0384 13.6923L30.1538 13.6923C30.5769 13.6923 31.0769 13.6923 31.6153 13.7308C32.1923 13.7693 32.6538 13.8077 33.0769 13.8462C33.5 13.8846 33.8846 14 34.2307 14.1923C34.6153 14.3846 34.923 14.6539 35.1923 15C35.4615 15.3462 35.6153 15.6539 35.7307 15.9616C35.8077 16.2693 35.8846 16.6923 35.8846 17.3077C35.8846 17.9231 35.8846 18.4231 35.8461 18.8462C35.7692 19.6154 35.6153 20.2308 35.3461 20.6923C35.0769 21.1539 34.6538 21.5 34.0384 21.8077C33.423 22.077 32.7307 22.3077 31.923 22.4231C31.1153 22.5385 30.3461 22.6154 29.5769 22.6154L26.6153 22.6154C25.923 22.6154 25.1153 22.577 24.1923 22.5C23.2692 22.4231 22.5384 22.2308 22.0769 21.8846C21.6153 21.5385 21.2692 21.1154 21.0384 20.6154C20.8461 20.1154 20.7307 19.6923 20.7307 19.3846L20.6538 18.1154L26 18.077Z"></path><path id="路径 9" fill-rule="evenodd" style="fill:#6738BD" opacity="1" d="M43.7308 7.5385L53.6154 7.5385L53.6154 3.34619L38.3846 3.34619L38.3846 32L43.7693 26.6154L43.7693 15.8462L53.6539 15.8462L53.6539 11.6154L43.7693 11.6154L43.7693 7.5385L43.7308 7.5385Z"></path><path id="路径 10" fill-rule="evenodd" style="fill:#6738BD" opacity="1" d="M57.0769 13.3077L57.0769 22.9616L62.0769 22.9616L62.0769 8.30771L57.0769 13.3077Z"></path><path id="路径 11" fill-rule="evenodd" style="fill:#6738BD" opacity="1" d="M70.3846 18.4616L70.3846 3.05176e-05L65.3846 5.00003L65.3846 22.5L75.3462 22.5L75.3462 18.4616L70.3846 18.4616Z"></path><path id="路径 12" fill-rule="evenodd" style="fill:#6738BD" opacity="1" d="M88.3461 8.2308C89.1538 8.34619 89.8846 8.50003 90.4615 8.65388C91.0384 8.80773 91.5384 9.11542 91.923 9.50004C92.3076 9.88465 92.6153 10.3462 92.8461 10.8462C93.0769 11.3462 93.1923 11.7693 93.1923 12.1154L93.2307 13.8462L93.2307 16.5L83.1538 16.5L83.1538 17.6539C83.1538 18.0385 83.2307 18.3462 83.3461 18.6539C83.4615 18.9616 83.6538 19.1923 83.8846 19.3462C84.1153 19.5 84.6153 19.577 85.2692 19.5385C85.7307 19.5385 86.1923 19.5 86.5769 19.4616C86.9615 19.4231 87.2692 19.2693 87.4615 19.0385C87.6538 18.8077 87.7692 18.577 87.7692 18.3462L87.8076 17.8462L93.1923 17.8462C93.0384 18.6923 92.8846 19.3462 92.6923 19.7693C92.4999 20.1923 92.1923 20.6539 91.6923 21.1154C91.2307 21.577 90.6923 21.9231 90.0769 22.1539C89.4615 22.3847 88.5769 22.5 87.423 22.5L83.5769 22.5C82.2307 22.5 81.2692 22.4231 80.6923 22.2693C80.1153 22.1154 79.5769 21.8077 79.1153 21.3462C78.6538 20.8847 78.3461 20.3847 78.1923 19.8462C78.0384 19.3077 77.9615 18.6923 77.9615 18L77.9615 13.5385C77.9615 12.8847 78.0384 12.2308 78.1923 11.577C78.3461 10.8847 78.6538 10.3077 79.1153 9.76927C79.5769 9.2308 80.1538 8.84619 80.923 8.61542C81.6923 8.38465 82.6153 8.2308 83.7692 8.2308L88.3461 8.2308ZM88.1153 13.6923C88.1538 13.2308 88.1538 12.8462 88.0769 12.5385C87.9999 12.2308 87.8076 11.9616 87.4999 11.7308C87.1923 11.5 86.8461 11.3847 86.423 11.3077C85.9999 11.2693 85.5769 11.2308 85.0769 11.2693C84.5384 11.3077 84.1153 11.4616 83.7692 11.6923C83.423 11.9231 83.2307 12.1923 83.2692 12.5L83.1923 13.6923L88.1153 13.6923Z"></path><path id="路径 13" fill-rule="evenodd" style="fill:#6738BD" opacity="1" d="M62.4231 5.38464C62.4231 5.9231 62.2692 6.46156 62 6.88464C61.5 7.69233 60.6154 8.19233 59.6154 8.19233C58.6154 8.19233 57.7308 7.65387 57.2308 6.88464C56.9615 6.46156 56.8077 5.9231 56.8077 5.38464C56.8077 3.80771 58.0769 2.53848 59.6538 2.53848C61.1538 2.53848 62.4231 3.80771 62.4231 5.38464Z"></path></g><g opacity="1"  transform="translate(0 0)"><path id="路径 14" fill-rule="evenodd" style="fill:#6738BD" opacity="1" d="M0 32.6154L0 3.84615C0 1.73077 1.73077 0 3.84615 0L32.6154 0C34.7308 0 36.4615 1.73077 36.4615 3.84615L36.4615 32.6154C36.4615 34.7308 34.7308 36.4615 32.6154 36.4615L3.84615 36.4615C1.73077 36.4615 0 34.7308 0 32.6154Z"></path><g opacity="1"  transform="translate(6.6922607421875 4.5)"><path id="路径 16" fill-rule="evenodd" style="fill:#FFFFFF" opacity="1" d="M3.9231 3.11538L13.4616 16.2308L13.4616 0L3.9231 3.11538Z"></path><path id="路径 17" fill-rule="evenodd" style="fill:#FFFFFF" opacity="1" d="M16.5 13.1154L14.2308 12.3461L14.2308 16.2307L16.5 13.1154Z"></path><path id="路径 18" fill-rule="evenodd" style="fill:#FFFFFF" opacity="1" d="M14.8462 16.6923L19.7693 15.0769L17.8846 12.5L14.8462 16.6923Z"></path><path id="路径 20" fill-rule="evenodd" style="fill:#FFFFFF" opacity="1" d="M0 12.5L12.8462 16.6923L4.88462 5.76923L0 12.5Z"></path><path id="路径 22" fill-rule="evenodd" style="fill:#FFFFFF" opacity="1" d="M21.5 20.3077L14.8462 18.1538L18.9616 23.7692L21.5 20.3077Z"></path><path id="路径 23" fill-rule="evenodd" style="fill:#FFFFFF" opacity="1" d="M18.9231 25.0769L14.2308 18.5769L14.2308 26.5769L18.9231 25.0769Z"></path><path id="路径 24" fill-rule="evenodd" style="fill:#FFFFFF" opacity="1" d="M15.077 17.4231L20.8847 19.2692L20.8847 15.5385L15.077 17.4231Z"></path><path id="路径 25" fill-rule="evenodd" style="fill:#FFFFFF" opacity="1" d="M12.8462 18.1538L2.34619 21.5385L6.34619 27.0769L12.8462 18.1538Z"></path><path id="路径 26" fill-rule="evenodd" style="fill:#FFFFFF" opacity="1" d="M7.76929 26.3846L13.4616 28.2308L13.4616 18.5769L7.76929 26.3846Z"></path><path id="路径 27" fill-rule="evenodd" style="fill:#FFFFFF" opacity="1" d="M12.6154 17.4231L0.846191 13.5769L0.846191 21.2308L12.6154 17.4231Z"></path></g></g></g></g></svg>